<svg xmlns="http://www.w3.org/2000/svg" viewBox="0 0 275.59 267.17"><defs><style>.cls-1{fill:#ffa4c9;}.cls-2{fill:none;}.cls-3{fill:#ff80ab;}.cls-4{fill:#fff;}</style></defs><title>Toertchen</title><g id="Kirsche"><rect class="cls-1" x="3.58" width="272.01" height="259"/></g><g id="Layer_3" data-name="Layer 3"><path class="cls-2" d="M472.56,378.57c0-.15-.11-.1-.21.06C473.42,378.57,472.5,378.29,472.56,378.57Z" transform="translate(-343.42 -230)"/><path class="cls-2" d="M405.29,336.6a96.52,96.52,0,0,0,29.11-3.22c2.94-.82,6-1.18,6.18-4.53a10.79,10.79,0,0,0-.47-3.41c-6,5.48-14.08,7.62-22.79,8-3.94.16-8.24-.51-12.1.32a6,6,0,0,0-3.19,1.34,3.09,3.09,0,0,0-.55,1.12A37,37,0,0,0,405.29,336.6Z" transform="translate(-343.42 -230)"/><path class="cls-2" d="M374.39,363.6c2.53,2,8.95-2.25,12.41-3.41,7.35-2.46,14.8-2.28,22.43-2.2,8.51.09,17,.11,25.54.13l4.89,0a125.17,125.17,0,0,1,16.77-.11c4-.64,7.22-3.19,3.44-7.41-3.55-4-10.84-4.3-15.7-4.64a197.81,197.81,0,0,0-25.65.35q-11.53.71-23,2c-4.36.5-9.41.6-13.54,2.24C378,352.45,368.11,358.55,374.39,363.6Z" transform="translate(-343.42 -230)"/><path class="cls-2" d="M399.55,335.76c0,.05.08.11.28.17A2.61,2.61,0,0,0,399.55,335.76Z" transform="translate(-343.42 -230)"/><path class="cls-2" d="M481.9,403.35c0,.08-.09.1-.3-.35-2-4.08-9-7.84-12.84-9.6a42.9,42.9,0,0,0-10.48-3.19c-10,.5-20.08.52-30.11.47-4,0-8.72-.4-12.89-.24l-1.1.06a29.62,29.62,0,0,0-3,.33c-3.53.62-7,1.44-10.49,2.3a311.62,311.62,0,0,0,44,18.13,134.88,134.88,0,0,0,18,4.8c4.82.86,6.31.9,10.07-1.71a28.8,28.8,0,0,0,7.62-7.63c.52-.79,1.62-2.27,1.53-3.29A.28.28,0,0,1,481.9,403.35Z" transform="translate(-343.42 -230)"/><path class="cls-2" d="M393.84,382.44a226.4,226.4,0,0,1,24.54-2.21c12.59-.7,26.95-2.14,40.15-.06,1.13-.06,2.27-.1,3.4-.18a73,73,0,0,0,8.74-.94l.52-.14a12.56,12.56,0,0,0-.35-2.9c-1.87-6.11-7.82-7.71-14-8a44.48,44.48,0,0,1-4.46.19c-2.69,0-5.38,0-8.07,0-7.76.2-15.48.84-23.21,1.56-9.17.85-18.34,1.63-27.47,2.82-8.24,1.07-18.5,1.67-25.89,5.86-1.25.78-5.11,2.74-5.31,4.52.07-.58.53.44,1.23,1,2.67,2,6.46,3,9.68,3.7,3,.64,4.28.54,8-.14,1.27-.23,2.54-.49,3.81-.76C387,383.89,390.56,383,393.84,382.44Z" transform="translate(-343.42 -230)"/><path class="cls-3" d="M490.79,398.68c-2.49-4.62-8-8.8-12.77-11.68a7.92,7.92,0,0,0,1.37-1.21c3.63-4.22,1.76-12.14-.61-16.45a19.52,19.52,0,0,0-8.82-8.55,13.37,13.37,0,0,0,1.33-3.78c1.3-6.75-2.8-13.37-8.52-16.67a36,36,0,0,0-14.18-4.09c4.19-6.62.79-16.48-3.2-22.82a4.5,4.5,0,0,0-5-2.15,4.66,4.66,0,0,0-3.67,2.52c-7,12.59-21.11,8.12-32.76,10-5.16.84-9.85,3.56-11.9,8.54a13,13,0,0,0-1,6.13,48,48,0,0,0-11.38,2.23,5.33,5.33,0,0,0-.86.32,5.4,5.4,0,0,0-.64.3c-7.93,3.82-16.76,10-15.74,19.93a14.93,14.93,0,0,0,2.81,7.16c-.79.36-1.57.74-2.34,1.15a7.3,7.3,0,0,0-.67.36c-4.41,2.75-9.34,6.47-9.83,12.07-.4,4.49,2.45,8,6,10.37,5.93,4,14.36,6.37,21.47,5.35,2.26-.33,4.5-.76,6.73-1.23.26.27.53.52.81.76a5,5,0,0,0,1.12.81A320.15,320.15,0,0,0,445,421.82c6.85,2.14,14,4.3,21.2,4.71,6.66.38,12-3.29,16.73-7.67C488,414.24,494.66,405.87,490.79,398.68Zm-18.23-20.11c-.06-.28.86,0-.21.06C472.45,378.47,472.53,378.42,472.56,378.57Zm-67.34-44.82c3.86-.83,8.16-.16,12.1-.32,8.71-.37,16.76-2.51,22.79-8a10.79,10.79,0,0,1,.47,3.41c-.15,3.35-3.24,3.71-6.18,4.53a96.52,96.52,0,0,1-29.11,3.22,37,37,0,0,1-3.81-.39,3.09,3.09,0,0,1,.55-1.12A6,6,0,0,1,405.22,333.75Zm-5.39,2.18c-.2-.06-.29-.12-.28-.17A2.61,2.61,0,0,1,399.83,335.93ZM382,350.57c4.13-1.64,9.18-1.74,13.54-2.24q11.47-1.31,23-2a197.81,197.81,0,0,1,25.65-.35c4.86.34,12.15.66,15.7,4.64,3.78,4.22.57,6.77-3.44,7.41a125.17,125.17,0,0,0-16.77.11l-4.89,0c-8.51,0-17,0-25.54-.13-7.63-.08-15.08-.26-22.43,2.2-3.46,1.16-9.88,5.45-12.41,3.41C368.11,358.55,378,352.45,382,350.57Zm-.63,36.87c-3.76.68-5,.78-8,.14-3.22-.69-7-1.66-9.68-3.7-.7-.54-1.16-1.56-1.23-1,.2-1.78,4.06-3.74,5.31-4.52,7.39-4.19,17.65-4.79,25.89-5.86,9.13-1.19,18.3-2,27.47-2.82,7.73-.72,15.45-1.36,23.21-1.56,2.69,0,5.38,0,8.07,0a44.48,44.48,0,0,0,4.46-.19c6.23.32,12.18,1.92,14,8a12.56,12.56,0,0,1,.35,2.9l-.52.14a73,73,0,0,1-8.74.94c-1.13.08-2.27.12-3.4.18-13.2-2.08-27.56-.64-40.15.06a226.4,226.4,0,0,0-24.54,2.21c-3.28.54-6.86,1.45-8.7,4.24C383.87,387,382.6,387.21,381.33,387.44Zm99.05,19.28a28.8,28.8,0,0,1-7.62,7.63c-3.76,2.61-5.25,2.57-10.07,1.71a134.88,134.88,0,0,1-18-4.8,311.62,311.62,0,0,1-44-18.13c3.48-.86,7-1.68,10.49-2.3a29.62,29.62,0,0,1,3-.33l1.1-.06c4.17-.16,8.87.22,12.89.24,10,.05,20.08,0,30.11-.47a42.9,42.9,0,0,1,10.48,3.19c3.84,1.76,10.88,5.52,12.84,9.6.21.45.28.43.3.35a.28.28,0,0,0,0,.08C482,404.45,480.9,405.93,480.38,406.72Z" transform="translate(-343.42 -230)"/></g><g id="Layer_3_copy" data-name="Layer 3 copy"><path class="cls-4" d="M492.24,425.08c-.32-.05-31.29-4.88-46.52-11.14-4.73-1.95-9.64-4.35-14.39-6.68-11.36-5.55-23.1-11.3-35.16-12.4-15.88-1.46-46.9-4.17-47.21-4.2l-5.54-.48.1,5.55c.36,19.82,1.6,66.7,5.34,73.9,3.21,6.19,19.16,14.72,46.37,20.68a324,324,0,0,0,56.87,6.76l2.69.1,1.57-2.19a713.69,713.69,0,0,0,39.5-62.55l3.43-6.26Zm-50.32-1.89a123.82,123.82,0,0,0,14.7,4.74l-18.93,58.31c-6.86-.53-13.27-1.22-19.22-2l22.66-61.36Zm-3.55-1.53-22.94,62.12c-2.41-.35-4.75-.73-7-1.12L425,415.28l2,1C430.67,418.08,434.51,420,438.37,421.66Zm-43.11-16.84a43.36,43.36,0,0,1,6.47,1.11l-9.54,73.35c-2.55-.63-5-1.27-7.22-1.92l3.4-73.17Zm-9.88-.9L382,476.48c-4.53-1.4-8.41-2.81-11.66-4.15l3.51-69.44Zm-31.75-2.81,17.23,1.52-3.46,68.42c-5.69-2.59-8.88-4.81-9.66-6C355.92,460.53,354.28,430.05,353.63,401.11ZM395.12,480l9.53-73.26a123.26,123.26,0,0,1,17.54,7.22l-16.73,68.19Q400,481.11,395.12,480Zm54.66,7c-3.09-.13-6.08-.31-9-.51l18.75-57.78c8.89,2.24,18,4,24.08,5.09C477.74,444,465,465.41,449.78,487Z" transform="translate(-343.42 -230)"/><path class="cls-4" d="M472.56,378.57c0-.15-.11-.1-.21.06C473.42,378.57,472.5,378.29,472.56,378.57Z" transform="translate(-343.42 -230)"/><path class="cls-4" d="M399.55,335.76c0,.05.08.11.28.17A2.61,2.61,0,0,0,399.55,335.76Z" transform="translate(-343.42 -230)"/><path class="cls-4" d="M490.79,398.68c-2.49-4.62-8-8.8-12.77-11.68a7.92,7.92,0,0,0,1.37-1.21c3.63-4.22,1.76-12.14-.61-16.45a19.52,19.52,0,0,0-8.82-8.55,13.37,13.37,0,0,0,1.33-3.78c1.3-6.75-2.8-13.37-8.52-16.67a36,36,0,0,0-14.18-4.09c4.19-6.62.79-16.48-3.2-22.82a4.5,4.5,0,0,0-5-2.15,4.66,4.66,0,0,0-3.67,2.52c-7,12.59-21.11,8.12-32.76,10-5.16.84-9.85,3.56-11.9,8.54a13,13,0,0,0-1,6.13,48,48,0,0,0-11.38,2.23,5.33,5.33,0,0,0-.86.32,5.4,5.4,0,0,0-.64.3c-7.93,3.82-16.76,10-15.74,19.93a14.93,14.93,0,0,0,2.81,7.16c-.79.36-1.57.74-2.34,1.15a7.3,7.3,0,0,0-.67.36c-4.41,2.75-9.34,6.47-9.83,12.07-.4,4.49,2.45,8,6,10.37,5.93,4,14.36,6.37,21.47,5.35,2.26-.33,4.5-.76,6.73-1.23.26.27.53.52.81.76a5,5,0,0,0,1.12.81A320.15,320.15,0,0,0,445,421.82c6.85,2.14,14,4.3,21.2,4.71,6.66.38,12-3.29,16.73-7.67C488,414.24,494.66,405.87,490.79,398.68Zm-18.23-20.11c-.06-.28.86,0-.21.06C472.45,378.47,472.53,378.42,472.56,378.57Zm-67.34-44.82c3.86-.83,8.16-.16,12.1-.32,8.71-.37,16.76-2.51,22.79-8a10.79,10.79,0,0,1,.47,3.41c-.15,3.35-3.24,3.71-6.18,4.53a96.52,96.52,0,0,1-29.11,3.22,37,37,0,0,1-3.81-.39,3.09,3.09,0,0,1,.55-1.12A6,6,0,0,1,405.22,333.75Zm-5.39,2.18c-.2-.06-.29-.12-.28-.17A2.61,2.61,0,0,1,399.83,335.93ZM382,350.57c4.13-1.64,9.18-1.74,13.54-2.24q11.47-1.31,23-2a197.81,197.81,0,0,1,25.65-.35c4.86.34,12.15.66,15.7,4.64,3.78,4.22.57,6.77-3.44,7.41a125.17,125.17,0,0,0-16.77.11l-4.89,0c-8.51,0-17,0-25.54-.13-7.63-.08-15.08-.26-22.43,2.2-3.46,1.16-9.88,5.45-12.41,3.41C368.11,358.55,378,352.45,382,350.57Zm-.63,36.87c-3.76.68-5,.78-8,.14-3.22-.69-7-1.66-9.68-3.7-.7-.54-1.16-1.56-1.23-1,.2-1.78,4.06-3.74,5.31-4.52,7.39-4.19,17.65-4.79,25.89-5.86,9.13-1.19,18.3-2,27.47-2.82,7.73-.72,15.45-1.36,23.21-1.56,2.69,0,5.38,0,8.07,0a44.48,44.48,0,0,0,4.46-.19c6.23.32,12.18,1.92,14,8a12.56,12.56,0,0,1,.35,2.9l-.52.14a73,73,0,0,1-8.74.94c-1.13.08-2.27.12-3.4.18-13.2-2.08-27.56-.64-40.15.06a226.4,226.4,0,0,0-24.54,2.21c-3.28.54-6.86,1.45-8.7,4.24C383.87,387,382.6,387.21,381.33,387.44Zm99.05,19.28a28.8,28.8,0,0,1-7.62,7.63c-3.76,2.61-5.25,2.57-10.07,1.71a134.88,134.88,0,0,1-18-4.8,311.62,311.62,0,0,1-44-18.13c3.48-.86,7-1.68,10.49-2.3a29.62,29.62,0,0,1,3-.33l1.1-.06c4.17-.16,8.87.22,12.89.24,10,.05,20.08,0,30.11-.47a42.9,42.9,0,0,1,10.48,3.19c3.84,1.76,10.88,5.52,12.84,9.6.21.45.28.43.3.35a.28.28,0,0,0,0,.08C482,404.45,480.9,405.93,480.38,406.72Z" transform="translate(-343.42 -230)"/><path class="cls-4" d="M420.07,312s-2.6,2.51-3,4.46.78,5.56,1.59,6.63.6,2-.59,2.8a3,3,0,0,1-3.91-.85,5.89,5.89,0,0,1-.88-5.31c.64-2.93,3.66-7.39,5.83-7.94S420.07,312,420.07,312Z" transform="translate(-343.42 -230)"/><path class="cls-4" d="M410,325.17s-4.15-9.1,4-13.46,10.08-3.94,13.77-2.11,7.51,7.79,7.3,8.77,4.88,1.07,4.88,1.07-1.62-7.45-1.53-7.46-4.27-8.14-12.29-8.88c1.71-7.81.7-17.25,1.13-19.2s-5.22-4.21-7-5.62-9.34-4.09-7.05-.52,4.24,4,5.77,6.38,3.05,4.76,2.41,7.7-.74,8,.57,11.38c-7.05-.52-10.62,1.77-14.83,7s-6,10.4-4.92,14,7.14,3.9,7.14,3.9" transform="translate(-343.42 -230)"/></g></svg>