<?xml version="1.0" encoding="utf-8"?>
<!-- Generator: Adobe Illustrator 22.1.0, SVG Export Plug-In . SVG Version: 6.00 Build 0)  -->
<svg version="1.1" xmlns="http://www.w3.org/2000/svg" xmlns:xlink="http://www.w3.org/1999/xlink" x="0px" y="0px"
	 viewBox="0 0 272 259" style="enable-background:new 0 0 272 259;" xml:space="preserve">
<style type="text/css">
	.st0{fill:#FFA4C9;}
	.st1{display:none;}
	.st2{display:inline;}
	.st3{fill:none;}
	.st4{fill:#FF80AB;}
	.st5{fill:#FFFFFF;}
</style>
<g id="Background">
	<rect class="st0" width="272" height="259"/>
</g>
<g id="Layer_2" class="st1">
	<g class="st2">
		<path class="st3" d="M118.1,232.2c2.3-0.1,4.7-0.2,7.1-0.4l9.1-65.6c-4.1-0.8-8.3-1.9-12.3-2.8c-0.7-0.2-1.4-0.3-2.1-0.5
			L118.1,232.2z"/>
		<path class="st3" d="M91,231.8l-12.2-71.6c-3.7,0.5-7.6,1-11.5,1.5l11.4,68.6C82.2,230.9,86.3,231.4,91,231.8z"/>
		<path class="st3" d="M94.1,232c2.3,0.2,4.8,0.3,7.5,0.3l-6.4-73.7c-2.2-0.1-4.4,0-6.6,0.3c-2.1,0.3-4.4,0.6-6.9,0.9L94.1,232z"/>
		<path class="st3" d="M147.5,229.4l6-61c-5.6-0.2-10.9-0.7-15.4-1.5c-0.3,0-0.6-0.1-0.8-0.2l-9,64.8
			C134.3,231.1,140.7,230.4,147.5,229.4z"/>
		<path class="st3" d="M156.5,168.5l-6,60.5c2.9-0.4,5.9-0.9,8.9-1.4c10.3-24.3,18.1-48,21.7-59.2
			C175,168.6,165.7,168.8,156.5,168.5z"/>
		<path class="st3" d="M64.3,162c-6.7,0.9-12.9,1.7-17.2,2.2c6.8,28.1,14.9,57.6,17.7,61.6c1,1,4.6,2.5,10.7,3.8L64.3,162z"/>
		<path class="st3" d="M116.9,162.1c-6.5-1.5-12.7-2.9-18.7-3.3l6.4,73.6c3.3,0,6.8,0,10.6-0.1L116.9,162.1z"/>
		<path class="st4" d="M187.7,158c-0.3,0-31.6,1.9-47.8-0.9c-5-0.9-10.4-2.2-15.5-3.4c-12.3-3-25-6.1-37-4.6c-15.8,2-46.7,6-47,6
			l-5.5,0.7l1.3,5.4c4.6,19.3,15.8,64.8,21,71c4.5,5.4,21.9,10.3,49.7,10.3c15.8,0,35-1.6,57-5.6l2.6-0.5l1.1-2.5
			c14.9-34.9,25.1-69.2,25.2-69.6l2-6.8L187.7,158z M138.1,166.9c4.4,0.8,9.8,1.2,15.4,1.5l-6,61c-6.8,1-13.2,1.7-19.2,2.1l9-64.8
			C137.6,166.8,137.8,166.9,138.1,166.9z M134.3,166.2l-9.1,65.6c-2.4,0.2-4.8,0.3-7.1,0.4l1.7-69.4c0.7,0.2,1.4,0.3,2.1,0.5
			C126.1,164.3,130.2,165.3,134.3,166.2z M88.6,159c2.1-0.3,4.3-0.3,6.6-0.3l6.4,73.7c-2.6-0.1-5.1-0.2-7.5-0.3l-12.3-72.2
			C84.2,159.5,86.6,159.2,88.6,159z M78.8,160.2L91,231.8c-4.7-0.4-8.8-0.9-12.3-1.6l-11.4-68.6C71.2,161.2,75.1,160.7,78.8,160.2z
			 M47.2,164.2c4.2-0.5,10.5-1.3,17.2-2.2l11.3,67.6c-6.1-1.3-9.7-2.8-10.7-3.8C62.1,221.8,54,192.4,47.2,164.2z M104.6,232.4
			l-6.4-73.6c6,0.5,12.2,1.8,18.7,3.3l-1.8,70.2C111.4,232.4,107.9,232.5,104.6,232.4z M159.5,227.5c-3,0.5-6,1-8.9,1.4l6-60.5
			c9.2,0.3,18.4,0.1,24.6-0.2C177.6,179.6,169.7,203.2,159.5,227.5z"/>
	</g>
</g>
<g id="Layer_3" class="st1">
	<g class="st2">
		<path class="st3" d="M125.6,148.6c0-0.2-0.1-0.1-0.2,0.1C126.4,148.6,125.5,148.3,125.6,148.6z"/>
		<path class="st3" d="M58.3,106.6c9.6,0.4,19.8-0.6,29.1-3.2c2.9-0.8,6-1.2,6.2-4.5c0-1.1-0.1-2.3-0.5-3.4c-6,5.5-14.1,7.6-22.8,8
			c-3.9,0.2-8.2-0.5-12.1,0.3c-1.1,0.2-2.4,0.5-3.2,1.3c-0.3,0.3-0.4,0.7-0.5,1.1C55.8,106.4,57,106.6,58.3,106.6z"/>
		<path class="st3" d="M27.4,133.6c2.5,2,9-2.3,12.4-3.4c7.3-2.5,14.8-2.3,22.4-2.2c8.5,0.1,17,0.1,25.5,0.1c1.6,0,3.3,0,4.9,0
			c5.6-0.3,11.2-0.5,16.8-0.1c4-0.6,7.2-3.2,3.4-7.4c-3.6-4-10.8-4.3-15.7-4.6c-8.5-0.6-17.1-0.2-25.6,0.4c-7.7,0.5-15.4,1.1-23,2
			c-4.4,0.5-9.4,0.6-13.5,2.2C31,122.5,21.1,128.6,27.4,133.6z"/>
		<path class="st3" d="M52.6,105.8c0,0,0.1,0.1,0.3,0.2C52.7,105.9,52.7,105.8,52.6,105.8z"/>
		<path class="st3" d="M134.9,173.3c0,0.1-0.1,0.1-0.3-0.3c-2-4.1-9-7.8-12.8-9.6c-3.3-1.5-6.8-2.5-10.5-3.2
			c-10,0.5-20.1,0.5-30.1,0.5c-4,0-8.7-0.4-12.9-0.2c-0.4,0-0.7,0-1.1,0.1c-1,0.1-2,0.2-3,0.3c-3.5,0.6-7,1.4-10.5,2.3
			c14.2,7.1,28.9,13.2,44,18.1c5.9,1.9,11.9,3.7,18,4.8c4.8,0.9,6.3,0.9,10.1-1.7c2.9-2,5.7-4.7,7.6-7.6
			C133.9,175.9,135,174.5,134.9,173.3C134.9,173.4,134.9,173.4,134.9,173.3z"/>
		<path class="st3" d="M46.8,152.4c8.1-1.3,16.4-1.8,24.5-2.2c12.6-0.7,27-2.1,40.1-0.1c1.1-0.1,2.3-0.1,3.4-0.2
			c2.8-0.2,6.5-0.4,8.7-0.9c0.2,0,0.3-0.1,0.5-0.1c-0.1-1,0-1.9-0.3-2.9c-1.9-6.1-7.8-7.7-14.1-8c-1.5,0.1-3,0.2-4.5,0.2
			c-2.7,0-5.4,0-8.1,0c-7.8,0.2-15.5,0.8-23.2,1.6c-9.2,0.9-18.3,1.6-27.5,2.8c-8.2,1.1-18.5,1.7-25.9,5.9c-1.3,0.8-5.1,2.7-5.3,4.5
			c0.1-0.6,0.5,0.4,1.2,1c2.7,2,6.5,3,9.7,3.7c3,0.6,4.3,0.5,8-0.1c1.3-0.2,2.5-0.5,3.8-0.8C40,153.9,43.6,153,46.8,152.4z"/>
		<path class="st4" d="M143.8,168.7c-2.5-4.6-8-8.8-12.8-11.7c0.5-0.4,1-0.8,1.4-1.2c3.6-4.2,1.8-12.1-0.6-16.4
			c-2.1-3.9-5.1-6.8-8.8-8.6c0.6-1.1,1.1-2.3,1.3-3.8c1.3-6.7-2.8-13.4-8.5-16.7c-4.2-2.4-9.2-3.6-14.2-4.1
			c4.2-6.6,0.8-16.5-3.2-22.8c-1.3-2-3.2-2.5-5-2.1c-1.4,0.1-2.8,0.9-3.7,2.5c-7,12.6-21.1,8.1-32.8,10c-5.2,0.8-9.8,3.6-11.9,8.5
			c-0.8,1.9-1.2,4.1-1,6.1c-4,0.4-7.9,1-11.4,2.2c-0.3,0.1-0.6,0.2-0.9,0.3c-0.2,0.1-0.4,0.2-0.6,0.3c-7.9,3.8-16.8,10-15.7,19.9
			c0.3,2.5,1.3,5,2.8,7.2c-0.8,0.4-1.6,0.7-2.3,1.2c-0.2,0.1-0.5,0.2-0.7,0.4c-4.4,2.7-9.3,6.5-9.8,12.1c-0.4,4.5,2.5,8,6,10.4
			c5.9,3.9,14.4,6.4,21.5,5.3c2.3-0.3,4.5-0.8,6.7-1.2c0.3,0.3,0.5,0.5,0.8,0.8c0.3,0.3,0.7,0.6,1.1,0.8c17.9,9.7,37,17.7,56.4,23.7
			c6.9,2.1,14,4.3,21.2,4.7c6.7,0.4,12-3.3,16.7-7.7C141,184.2,147.7,175.9,143.8,168.7z M125.6,148.6c-0.1-0.3,0.9,0-0.2,0.1
			C125.4,148.5,125.5,148.4,125.6,148.6z M58.2,103.7c3.9-0.8,8.2-0.2,12.1-0.3c8.7-0.4,16.8-2.5,22.8-8c0.3,1.2,0.5,2.3,0.5,3.4
			c-0.2,3.4-3.2,3.7-6.2,4.5c-9.3,2.6-19.5,3.6-29.1,3.2c-1.3-0.1-2.5-0.2-3.8-0.4c0.1-0.4,0.3-0.8,0.5-1.1
			C55.8,104.2,57.1,104,58.2,103.7z M52.8,105.9c-0.2-0.1-0.3-0.1-0.3-0.2C52.7,105.8,52.7,105.9,52.8,105.9z M35,120.6
			c4.1-1.6,9.2-1.7,13.5-2.2c7.7-0.9,15.3-1.5,23-2c8.5-0.5,17.1-1,25.6-0.4c4.9,0.3,12.2,0.7,15.7,4.6c3.8,4.2,0.6,6.8-3.4,7.4
			c-5.5-0.4-11.2-0.2-16.8,0.1c-1.6,0-3.3,0-4.9,0c-8.5,0-17,0-25.5-0.1c-7.6-0.1-15.1-0.3-22.4,2.2c-3.5,1.2-9.9,5.5-12.4,3.4
			C21.1,128.6,31,122.5,35,120.6z M34.3,157.4c-3.8,0.7-5,0.8-8,0.1c-3.2-0.7-7-1.7-9.7-3.7c-0.7-0.5-1.2-1.6-1.2-1
			c0.2-1.8,4.1-3.7,5.3-4.5c7.4-4.2,17.6-4.8,25.9-5.9c9.1-1.2,18.3-2,27.5-2.8c7.7-0.7,15.5-1.4,23.2-1.6c2.7,0,5.4,0,8.1,0
			c1.5,0,3,0,4.5-0.2c6.2,0.3,12.2,1.9,14.1,8c0.3,1,0.3,1.9,0.3,2.9c-0.2,0.1-0.4,0.1-0.5,0.1c-2.3,0.5-5.9,0.7-8.7,0.9
			c-1.1,0.1-2.3,0.1-3.4,0.2c-13.2-2.1-27.6-0.6-40.1,0.1c-8.2,0.5-16.5,0.9-24.5,2.2c-3.3,0.5-6.9,1.5-8.7,4.2
			C36.9,157,35.6,157.2,34.3,157.4z M133.4,176.7c-1.9,3-4.7,5.6-7.6,7.6c-3.8,2.6-5.2,2.6-10.1,1.7c-6.1-1.1-12.1-2.9-18-4.8
			c-15-4.9-29.8-11-44-18.1c3.5-0.9,7-1.7,10.5-2.3c0.9-0.2,1.9-0.3,3-0.3c0.4,0,0.7,0,1.1-0.1c4.2-0.2,8.9,0.2,12.9,0.2
			c10,0,20.1,0,30.1-0.5c3.7,0.7,7.2,1.7,10.5,3.2c3.8,1.8,10.9,5.5,12.8,9.6c0.2,0.4,0.3,0.4,0.3,0.3c0,0,0,0,0,0.1
			C135,174.5,133.9,175.9,133.4,176.7z"/>
	</g>
</g>
<g id="toertchen_x5F_white">
	<g>
		<path class="st3" d="M27.4,133.6c2.5,2,9-2.3,12.4-3.4c7.3-2.5,14.8-2.3,22.4-2.2c8.5,0.1,17,0.1,25.5,0.1c1.6,0,3.3,0,4.9,0
			c5.6-0.3,11.2-0.5,16.8-0.1c4-0.6,7.2-3.2,3.4-7.4c-3.6-4-10.8-4.3-15.7-4.6c-8.5-0.6-17.1-0.2-25.6,0.4c-7.7,0.5-15.4,1.1-23,2
			c-4.4,0.5-9.4,0.6-13.5,2.2C31,122.5,21.1,128.6,27.4,133.6z"/>
		<path class="st3" d="M16.6,153.9c2.7,2,6.5,3,9.7,3.7c3,0.6,4.3,0.5,8-0.1c1.3-0.2,2.5-0.5,3.8-0.8c1.8-2.8,5.4-3.7,8.7-4.2
			c8.1-1.3,16.4-1.8,24.5-2.2c12.6-0.7,27-2.1,40.1-0.1c1.1-0.1,2.3-0.1,3.4-0.2c2.8-0.2,6.5-0.4,8.7-0.9c0.2,0,0.3-0.1,0.5-0.1
			c-0.1-1,0-1.9-0.3-2.9c-1.9-6.1-7.8-7.7-14.1-8c-1.5,0.1-3,0.2-4.5,0.2c-2.7,0-5.4,0-8.1,0c-7.8,0.2-15.5,0.8-23.2,1.6
			c-9.2,0.9-18.3,1.6-27.5,2.8c-8.2,1.1-18.5,1.7-25.9,5.9c-1.3,0.8-5.1,2.7-5.3,4.5C15.4,152.3,15.9,153.3,16.6,153.9z"/>
		<path class="st3" d="M87.4,103.4c2.9-0.8,6-1.2,6.2-4.5c0-1.1-0.1-2.3-0.5-3.4c-6,5.5-14.1,7.6-22.8,8c-3.9,0.2-8.2-0.5-12.1,0.3
			c-1.1,0.2-2.4,0.5-3.2,1.3c-0.3,0.3-0.4,0.7-0.5,1.1c1.3,0.2,2.5,0.3,3.8,0.4C67.9,107,78.1,106,87.4,103.4z"/>
		<path class="st3" d="M6.6,171.1c0.6,28.9,2.3,59.4,4.1,63.9c0.8,1.2,4,3.4,9.7,6l3.5-68.4C17.2,172,10.9,171.5,6.6,171.1z"/>
		<path class="st3" d="M80.8,79.6c-3.7-1.8-5.6-2.3-13.8,2.1c-5.8,3.1-5.3,8.7-4.6,11.6c1.3-0.1,2.5-0.1,3.8-0.1
			c-0.3-0.8-0.3-1.9,0-3.5c0.6-2.9,3.7-7.4,5.8-7.9c2.2-0.5,1,0.2,1,0.2s-2.6,2.5-3,4.5s0.8,5.6,1.6,6.6c0,0,0,0,0,0
			c6.1-0.3,11.8-1.4,15.9-6.2C86.5,84.8,83.6,81,80.8,79.6z"/>
		<path class="st3" d="M111.3,160.2c-10,0.5-20.1,0.5-30.1,0.5c-4,0-8.7-0.4-12.9-0.2c-0.4,0-0.7,0-1.1,0.1c-1,0.1-2,0.2-3,0.3
			c-3.5,0.6-7,1.4-10.5,2.3c4.2,2.1,8.4,4.1,12.7,6.1c3.4,1.3,6.7,2.8,10,4.3c7,2.9,14.1,5.5,21.2,7.8c5.9,1.9,11.9,3.7,18,4.8
			c4.8,0.9,6.3,0.9,10.1-1.7c2.9-2,5.7-4.7,7.6-7.6c0.5-0.8,1.6-2.3,1.5-3.3c0,0,0-0.1,0-0.1c0,0.1-0.1,0.1-0.3-0.3
			c-2-4.1-9-7.8-12.8-9.6C118.5,161.9,114.9,160.9,111.3,160.2z"/>
		<path class="st3" d="M57.7,176.7L48.1,250c3.2,0.7,6.7,1.5,10.3,2.1l16.7-68.2c-1.1-0.5-2.2-1-3.3-1.5c-3.2-1.3-6.4-2.7-9.6-4.1
			C60.7,177.7,59.2,177.2,57.7,176.7z"/>
		<path class="st3" d="M79.9,186.2c-0.7-0.3-1.3-0.6-2-1l-16.5,67.4c2.3,0.4,4.6,0.8,7,1.1l22.9-62.1
			C87.5,190,83.7,188.1,79.9,186.2z"/>
		<path class="st3" d="M94.9,193.2c-0.3-0.1-0.5-0.2-0.8-0.3l-22.7,61.4c5.9,0.8,12.4,1.5,19.2,2l18.9-58.3
			C104.3,196.5,99.1,194.9,94.9,193.2z"/>
		<path class="st3" d="M26.9,172.9l-3.5,69.4c3.3,1.3,7.1,2.8,11.7,4.1l3.4-72.6C34.7,173.6,30.7,173.2,26.9,172.9z"/>
		<path class="st3" d="M93.8,256.5c2.9,0.2,5.9,0.4,9,0.5c15.2-21.6,28-43,33.8-53.2c-6.1-1.1-15.2-2.8-24.1-5.1L93.8,256.5z"/>
		<path class="st3" d="M48.3,174.8c-2.1-0.2-4.4-0.4-6.9-0.6L38,247.4c2.3,0.7,4.7,1.3,7.2,1.9l9.5-73.3
			C52.6,175.4,50.4,175,48.3,174.8z"/>
		<path class="st5" d="M145.2,195.1c-0.1,0-6-0.9-13.9-2.5c-3.6,2.5-7.5,4.2-12.1,3.9c-7.2-0.4-14.3-2.6-21.2-4.7
			c-8.8-2.8-17.5-5.9-26.1-9.4c1.1,0.5,2.2,1,3.3,1.5l-16.7,68.2c-3.7-0.7-7.1-1.4-10.3-2.1l9.5-73.3c1.5,0.5,3.1,1,4.7,1.6
			c-7-3.2-14-6.6-20.7-10.2c-0.4-0.2-0.8-0.5-1.1-0.8c-0.3-0.2-0.5-0.5-0.8-0.8c-2.2,0.5-4.5,0.9-6.7,1.2c-7.1,1-15.5-1.4-21.5-5.3
			c-0.5-0.3-0.9-0.7-1.4-1c-4.8-0.4-8-0.7-8.1-0.7l-2-0.2v71.3c0.5,3.7,1.2,6.5,1.9,7.8c3,5.8,17,13.5,40.8,19.4h71
			c20-28.8,35.1-56.3,35.3-56.6l3.4-6.3L145.2,195.1z M10.7,235c-1.8-4.5-3.5-35-4.1-63.9c4.3,0.4,10.5,0.9,17.2,1.5l-3.5,68.4
			C14.7,238.5,11.5,236.2,10.7,235z M23.3,242.3l3.5-69.4c3.9,0.3,7.8,0.7,11.5,1L35,246.5C30.5,245.1,26.6,243.7,23.3,242.3z
			 M38,247.4l3.4-73.2c2.5,0.2,4.8,0.4,6.9,0.6c2.1,0.2,4.3,0.6,6.5,1.1l-9.5,73.3C42.6,248.7,40.2,248,38,247.4z M61.4,252.7
			L78,185.3c0.7,0.3,1.3,0.6,2,1c3.7,1.8,7.6,3.7,11.4,5.4l-22.9,62.1C66,253.4,63.7,253,61.4,252.7z M71.5,254.2l22.7-61.4
			c0.3,0.1,0.5,0.2,0.8,0.3c4.2,1.7,9.3,3.3,14.7,4.7l-18.9,58.3C83.8,255.7,77.4,255,71.5,254.2z M102.8,257
			c-3.1-0.1-6.1-0.3-9-0.5l18.8-57.8c8.9,2.2,18,4,24.1,5.1C130.7,214,118,235.4,102.8,257z"/>
		<path class="st5" d="M76.5,173.5c-3.3-1.5-6.7-3-10-4.3C69.8,170.7,73.1,172.1,76.5,173.5z"/>
		<path class="st5" d="M125.6,148.6c0-0.2-0.1-0.1-0.2,0.1C126.4,148.6,125.5,148.3,125.6,148.6z"/>
		<path class="st5" d="M52.8,105.9c-0.1-0.1-0.2-0.1-0.3-0.2C52.5,105.8,52.6,105.9,52.8,105.9z"/>
		<path class="st5" d="M32.9,167.7c2.3-0.3,4.5-0.8,6.7-1.2c0.3,0.3,0.5,0.5,0.8,0.8c0.3,0.3,0.7,0.6,1.1,0.8
			c6.8,3.6,13.7,7,20.7,10.2c3.2,1.4,6.4,2.8,9.6,4.1c8.6,3.5,17.3,6.7,26.1,9.4c6.9,2.1,14,4.3,21.2,4.7c4.6,0.3,8.6-1.4,12.1-3.9
			c1.6-1.1,3.1-2.4,4.6-3.7c5-4.6,11.7-13,7.8-20.2c-2.5-4.6-8-8.8-12.8-11.7c0.5-0.4,1-0.8,1.4-1.2c3.6-4.2,1.8-12.1-0.6-16.4
			c-2.1-3.9-5.1-6.8-8.8-8.6c0.6-1.1,1.1-2.3,1.3-3.8c1.3-6.7-2.8-13.4-8.5-16.7c-4.2-2.4-9.2-3.6-14.2-4.1
			c4.2-6.6,0.8-16.5-3.2-22.8c-1.3-2-3.2-2.5-5-2.1c-0.7,0.1-1.4,0.3-2,0.7c-0.1,0,1.5,7.5,1.5,7.5s-5.1-0.1-4.9-1.1
			c0.1-0.2-0.1-0.8-0.5-1.4c-4.2,4.8-9.9,5.9-15.9,6.2c0.8,1.1,0.6,2-0.6,2.8c-1.2,0.8-3.1,0.3-3.9-0.9c-0.4-0.5-0.7-1.1-0.9-1.8
			c-1.3,0-2.6,0-3.8,0.1c0.3,1.1,0.6,1.8,0.6,1.8l-0.6,2.9c0,0-6.1-0.3-7.1-3.9c-4.4,1.1-8.3,3.8-10.2,8.2c-0.8,1.9-1.2,4.1-1,6.1
			c-4,0.4-7.9,1-11.4,2.2c-0.3,0.1-0.6,0.2-0.9,0.3c-0.2,0.1-0.4,0.2-0.6,0.3c-7.9,3.8-16.8,10-15.7,19.9c0.3,2.5,1.3,5,2.8,7.2
			c-0.8,0.4-1.6,0.7-2.3,1.2c-0.2,0.1-0.5,0.2-0.7,0.4c-4.4,2.7-9.3,6.5-9.8,12.1c-0.3,3.9,1.7,7,4.6,9.3c0.4,0.4,0.9,0.7,1.4,1
			C17.4,166.3,25.8,168.8,32.9,167.7z M134.6,173c0.2,0.4,0.3,0.4,0.3,0.3c0,0,0,0,0,0.1c0.1,1-1,2.5-1.5,3.3
			c-1.9,3-4.7,5.6-7.6,7.6c-3.8,2.6-5.2,2.6-10.1,1.7c-6.1-1.1-12.1-2.9-18-4.8c-7.1-2.3-14.2-4.9-21.2-7.8c-3.4-1.4-6.7-2.8-10-4.3
			c-4.3-1.9-8.5-3.9-12.7-6.1c3.5-0.9,7-1.7,10.5-2.3c0.9-0.2,1.9-0.3,3-0.3c0.4,0,0.7,0,1.1-0.1c4.2-0.2,8.9,0.2,12.9,0.2
			c10,0,20.1,0,30.1-0.5c3.7,0.7,7.2,1.7,10.5,3.2C125.6,165.2,132.6,168.9,134.6,173z M125.6,148.6c-0.1-0.3,0.9,0-0.2,0.1
			C125.4,148.5,125.5,148.4,125.6,148.6z M55,105.1c0.8-0.8,2.1-1.1,3.2-1.3c3.9-0.8,8.2-0.2,12.1-0.3c8.7-0.4,16.8-2.5,22.8-8
			c0.3,1.2,0.5,2.3,0.5,3.4c-0.2,3.4-3.2,3.7-6.2,4.5c-9.3,2.6-19.5,3.6-29.1,3.2c-1.3-0.1-2.5-0.2-3.8-0.4
			C54.6,105.8,54.8,105.4,55,105.1z M52.8,105.9c-0.2-0.1-0.3-0.1-0.3-0.2C52.7,105.8,52.7,105.9,52.8,105.9z M35,120.6
			c4.1-1.6,9.2-1.7,13.5-2.2c7.7-0.9,15.3-1.5,23-2c8.5-0.5,17.1-1,25.6-0.4c4.9,0.3,12.2,0.7,15.7,4.6c3.8,4.2,0.6,6.8-3.4,7.4
			c-5.5-0.4-11.2-0.2-16.8,0.1c-1.6,0-3.3,0-4.9,0c-8.5,0-17,0-25.5-0.1c-7.6-0.1-15.1-0.3-22.4,2.2c-3.5,1.2-9.9,5.5-12.4,3.4
			C21.1,128.6,31,122.5,35,120.6z M20.7,148.4c7.4-4.2,17.6-4.8,25.9-5.9c9.1-1.2,18.3-2,27.5-2.8c7.7-0.7,15.5-1.4,23.2-1.6
			c2.7,0,5.4,0,8.1,0c1.5,0,3,0,4.5-0.2c6.2,0.3,12.2,1.9,14.1,8c0.3,1,0.3,1.9,0.3,2.9c-0.2,0.1-0.4,0.1-0.5,0.1
			c-2.3,0.5-5.9,0.7-8.7,0.9c-1.1,0.1-2.3,0.1-3.4,0.2c-13.2-2.1-27.6-0.6-40.1,0.1c-8.2,0.5-16.5,0.9-24.5,2.2
			c-3.3,0.5-6.9,1.5-8.7,4.2c-1.3,0.3-2.5,0.5-3.8,0.8c-3.8,0.7-5,0.8-8,0.1c-3.2-0.7-7-1.7-9.7-3.7c-0.7-0.5-1.2-1.6-1.2-1
			C15.6,151.1,19.4,149.2,20.7,148.4z"/>
		<path class="st5" d="M70,86.5c0.4-2,3-4.5,3-4.5s1.2-0.8-1-0.2c-2.2,0.5-5.2,5-5.8,7.9c-0.3,1.6-0.3,2.7,0,3.5
			c0.2,0.7,0.6,1.3,0.9,1.8c0.8,1.2,2.7,1.6,3.9,0.9c1.2-0.8,1.4-1.7,0.6-2.8c0,0,0,0,0,0C70.8,92,69.6,88.4,70,86.5z"/>
		<path class="st5" d="M62.4,98.1l0.6-2.9c0,0-0.3-0.7-0.6-1.8c-0.7-2.9-1.3-8.5,4.6-11.6c8.1-4.4,10.1-3.9,13.8-2.1
			c2.8,1.4,5.7,5.2,6.8,7.3c0.4,0.7,0.5,1.2,0.5,1.4c-0.2,1,4.9,1.1,4.9,1.1S91.3,82,91.4,82c0,0,0,0,0,0c0.1,0-4.3-8.1-12.3-8.9
			c1.7-7.8,0.7-17.2,1.1-19.2s-5.2-4.2-7-5.6c-1.7-1.4-9.3-4.1-7.1-0.5s4.2,4,5.8,6.4c1.5,2.4,3.1,4.8,2.4,7.7
			c-0.6,2.9-0.7,8,0.6,11.4c-7.1-0.5-10.6,1.8-14.8,7s-6,10.4-4.9,14c0,0,0,0,0,0C56.3,97.8,62.4,98.1,62.4,98.1z"/>
	</g>
</g>
</svg>
