<svg xmlns="http://www.w3.org/2000/svg" viewBox="0 0 272.01 259"><defs><style>.cls-1{fill:#ffa4c9;}.cls-2{fill:none;}.cls-3{fill:#ff80ab;}.cls-4{fill:#fff;}</style></defs><title>Asset 1</title><g id="Layer_2" data-name="Layer 2"><g id="Kirsche"><rect class="cls-1" width="272.01" height="259"/></g><g id="Layer_3" data-name="Layer 3"><path class="cls-2" d="M125.56,148.57c0-.15-.11-.1-.21.06C126.42,148.57,125.5,148.29,125.56,148.57Z"/><path class="cls-2" d="M58.29,106.6a96.52,96.52,0,0,0,29.11-3.22c2.94-.82,6-1.18,6.18-4.53a10.79,10.79,0,0,0-.47-3.41c-6,5.48-14.08,7.62-22.79,8-3.94.16-8.24-.51-12.1.32A6,6,0,0,0,55,105.09a3.09,3.09,0,0,0-.55,1.12A37,37,0,0,0,58.29,106.6Z"/><path class="cls-2" d="M27.39,133.6c2.53,2,9-2.25,12.41-3.41,7.35-2.46,14.8-2.28,22.43-2.2,8.51.09,17,.11,25.54.13l4.89,0a125.17,125.17,0,0,1,16.77-.11c4-.64,7.22-3.19,3.44-7.41-3.55-4-10.84-4.3-15.7-4.64a197.81,197.81,0,0,0-25.65.35q-11.53.7-23,2c-4.36.5-9.41.6-13.54,2.24C31,122.45,21.11,128.55,27.39,133.6Z"/><path class="cls-2" d="M52.55,105.76s.08.11.28.17A2.61,2.61,0,0,0,52.55,105.76Z"/><path class="cls-2" d="M134.9,173.35c0,.08-.09.1-.3-.35-2-4.08-9-7.84-12.84-9.6a42.9,42.9,0,0,0-10.48-3.19c-10,.5-20.08.52-30.11.47-4,0-8.72-.4-12.89-.24l-1.1.06a29.62,29.62,0,0,0-3,.33c-3.53.62-7,1.44-10.49,2.3a311.62,311.62,0,0,0,44,18.13,134.88,134.88,0,0,0,18,4.8c4.82.86,6.31.9,10.07-1.71a28.8,28.8,0,0,0,7.62-7.63c.52-.79,1.62-2.27,1.53-3.29A.28.28,0,0,1,134.9,173.35Z"/><path class="cls-2" d="M46.84,152.44a226.4,226.4,0,0,1,24.54-2.21c12.59-.7,27-2.14,40.15-.06,1.13-.06,2.27-.1,3.4-.18a73,73,0,0,0,8.74-.94l.52-.14a12.56,12.56,0,0,0-.35-2.9c-1.87-6.11-7.82-7.71-14-8a44.48,44.48,0,0,1-4.46.19l-8.07,0c-7.76.2-15.48.84-23.21,1.56-9.17.85-18.34,1.63-27.47,2.82-8.24,1.07-18.5,1.67-25.89,5.86-1.25.78-5.11,2.74-5.31,4.52.07-.58.53.44,1.23,1,2.67,2,6.46,3,9.68,3.7,3,.64,4.28.54,8-.14,1.27-.23,2.54-.49,3.81-.76C40,153.89,43.56,153,46.84,152.44Z"/><path class="cls-3" d="M143.79,168.68c-2.49-4.62-8-8.8-12.77-11.68a7.92,7.92,0,0,0,1.37-1.21c3.63-4.22,1.76-12.14-.61-16.45a19.52,19.52,0,0,0-8.82-8.55,13.37,13.37,0,0,0,1.33-3.78c1.3-6.75-2.8-13.37-8.52-16.67a36,36,0,0,0-14.18-4.09c4.19-6.62.79-16.48-3.2-22.82a4.5,4.5,0,0,0-5-2.15,4.66,4.66,0,0,0-3.67,2.52c-7,12.59-21.11,8.12-32.76,10-5.16.84-9.85,3.56-11.9,8.54a13,13,0,0,0-1,6.13,48,48,0,0,0-11.38,2.23,5.33,5.33,0,0,0-.86.32,5.4,5.4,0,0,0-.64.3c-7.93,3.82-16.76,10-15.74,19.93a14.93,14.93,0,0,0,2.81,7.16c-.79.36-1.57.74-2.34,1.15a7.3,7.3,0,0,0-.67.36C10.89,142.71,6,146.43,5.47,152c-.4,4.49,2.45,8,6,10.37,5.93,3.95,14.36,6.37,21.47,5.35,2.26-.33,4.5-.76,6.73-1.23.26.27.53.52.81.76a5,5,0,0,0,1.12.81A320.15,320.15,0,0,0,98,191.82c6.85,2.14,14,4.3,21.2,4.71,6.66.38,12-3.29,16.73-7.67C141,184.24,147.66,175.87,143.79,168.68Zm-18.23-20.11c-.06-.28.86,0-.21.06C125.45,148.47,125.53,148.42,125.56,148.57ZM58.22,103.75c3.86-.83,8.16-.16,12.1-.32,8.71-.37,16.76-2.51,22.79-8a10.79,10.79,0,0,1,.47,3.41c-.15,3.35-3.24,3.71-6.18,4.53a96.52,96.52,0,0,1-29.11,3.22,37,37,0,0,1-3.81-.39,3.09,3.09,0,0,1,.55-1.12A6,6,0,0,1,58.22,103.75Zm-5.39,2.18c-.2-.06-.29-.12-.28-.17A2.61,2.61,0,0,1,52.83,105.93ZM35,120.57c4.13-1.64,9.18-1.74,13.54-2.24q11.47-1.31,23-2A197.81,197.81,0,0,1,97.17,116c4.86.34,12.15.66,15.7,4.64,3.78,4.22.57,6.77-3.44,7.41a125.17,125.17,0,0,0-16.77.11l-4.89,0c-8.51,0-17,0-25.54-.13-7.63-.08-15.08-.26-22.43,2.2-3.46,1.16-9.88,5.45-12.41,3.41C21.11,128.55,31,122.45,35,120.57Zm-.63,36.87c-3.76.68-5,.78-8,.14-3.22-.69-7-1.66-9.68-3.7-.7-.54-1.16-1.56-1.23-1,.2-1.78,4.06-3.74,5.31-4.52,7.39-4.19,17.65-4.79,25.89-5.86,9.13-1.19,18.3-2,27.47-2.82,7.73-.72,15.45-1.36,23.21-1.56l8.07,0a44.48,44.48,0,0,0,4.46-.19c6.23.32,12.18,1.92,14,8a12.56,12.56,0,0,1,.35,2.9l-.52.14a73,73,0,0,1-8.74.94c-1.13.08-2.27.12-3.4.18-13.2-2.08-27.56-.64-40.15.06a226.4,226.4,0,0,0-24.54,2.21c-3.28.54-6.86,1.45-8.7,4.24C36.87,157,35.6,157.21,34.33,157.44Zm99.05,19.28a28.8,28.8,0,0,1-7.62,7.63c-3.76,2.61-5.25,2.57-10.07,1.71a134.88,134.88,0,0,1-18-4.8,311.62,311.62,0,0,1-44-18.13c3.48-.86,7-1.68,10.49-2.3a29.62,29.62,0,0,1,3-.33l1.1-.06c4.17-.16,8.87.22,12.89.24,10,0,20.08,0,30.11-.47a42.9,42.9,0,0,1,10.48,3.19c3.84,1.76,10.88,5.52,12.84,9.6.21.45.28.43.3.35a.28.28,0,0,0,0,.08C135,174.45,133.9,175.93,133.38,176.72Z"/></g><g id="Layer_3_copy" data-name="Layer 3 copy"><path class="cls-2" d="M27.39,133.6c2.53,2,9-2.25,12.41-3.41,7.35-2.46,14.8-2.28,22.43-2.2,8.51.09,17,.11,25.54.13l4.89,0a125.17,125.17,0,0,1,16.77-.11c4-.64,7.22-3.19,3.44-7.41-3.55-4-10.84-4.3-15.7-4.64a197.81,197.81,0,0,0-25.65.35q-11.53.7-23,2c-4.36.5-9.41.6-13.54,2.24C31,122.45,21.11,128.55,27.39,133.6Z"/><path class="cls-2" d="M16.61,153.88c2.67,2,6.46,3,9.68,3.7,3,.64,4.28.53,8-.14,1.27-.23,2.54-.49,3.81-.76,1.84-2.79,5.42-3.7,8.7-4.24a226.4,226.4,0,0,1,24.54-2.21c12.59-.7,27-2.14,40.15-.06,1.13-.06,2.27-.1,3.4-.18a73,73,0,0,0,8.74-.94l.52-.15a12.54,12.54,0,0,0-.35-2.89c-1.87-6.11-7.82-7.71-14-8a44.48,44.48,0,0,1-4.46.19l-8.07,0c-7.76.2-15.48.84-23.21,1.56-9.17.85-18.34,1.63-27.47,2.82-8.24,1.07-18.5,1.67-25.89,5.86-1.26.78-5.11,2.74-5.31,4.52C15.45,152.32,15.91,153.34,16.61,153.88Z"/><path class="cls-2" d="M87.4,103.38c2.94-.82,6-1.18,6.18-4.53a10.79,10.79,0,0,0-.47-3.41c-6,5.48-14.08,7.62-22.79,8-3.94.16-8.24-.51-12.1.32A6,6,0,0,0,55,105.09a3.09,3.09,0,0,0-.55,1.12,37,37,0,0,0,3.81.39A96.52,96.52,0,0,0,87.4,103.38Z"/><path class="cls-2" d="M6.63,171.11c.65,28.94,2.29,59.42,4.11,63.92.78,1.21,4,3.43,9.66,6l3.46-68.42Z"/><path class="cls-2" d="M80.76,79.6c-3.69-1.83-5.64-2.26-13.77,2.11-5.84,3.14-5.33,8.73-4.59,11.62,1.27-.06,2.55-.08,3.83-.1a6.78,6.78,0,0,1,0-3.49c.64-2.93,3.66-7.39,5.83-7.94s1,.21,1,.21-2.6,2.51-3,4.46.78,5.56,1.59,6.63h0c6.07-.29,11.78-1.36,15.93-6.16C86.45,84.78,83.58,81,80.76,79.6Z"/><path class="cls-2" d="M111.28,160.21c-10,.5-20.08.52-30.11.47-4,0-8.72-.4-12.89-.24l-1.1.06a29.62,29.62,0,0,0-3,.33c-3.53.62-7,1.44-10.49,2.3q6.28,3.17,12.73,6.05c3.37,1.28,6.71,2.75,10,4.3q10.48,4.28,21.22,7.78a134.88,134.88,0,0,0,18,4.8c4.82.86,6.31.9,10.07-1.71a28.8,28.8,0,0,0,7.62-7.63c.52-.79,1.62-2.27,1.53-3.29a.28.28,0,0,1,0-.08c0,.08-.09.1-.3-.35-2-4.08-9-7.84-12.84-9.6A42.9,42.9,0,0,0,111.28,160.21Z"/><path class="cls-2" d="M57.65,176.72,48.12,250q4.85,1.13,10.34,2.15l16.73-68.19c-1.09-.52-2.17-1-3.25-1.54-3.23-1.32-6.45-2.68-9.63-4.1Q60,177.42,57.65,176.72Z"/><path class="cls-2" d="M79.93,186.25l-2-1L61.42,252.66c2.26.39,4.6.77,7,1.12l22.94-62.12C87.51,190,83.67,188.08,79.93,186.25Z"/><path class="cls-2" d="M94.92,193.19l-.79-.34L71.47,254.21c6,.81,12.36,1.5,19.22,2l18.93-58.31A123.82,123.82,0,0,1,94.92,193.19Z"/><path class="cls-2" d="M26.85,172.89l-3.51,69.44c3.25,1.34,7.13,2.75,11.66,4.15l3.38-72.56Z"/><path class="cls-2" d="M93.78,256.46c2.92.2,5.91.38,9,.51,15.24-21.56,28-43,33.83-53.2-6.07-1.08-15.19-2.85-24.08-5.09Z"/><path class="cls-2" d="M48.26,174.82l-6.89-.63L38,247.36c2.25.65,4.67,1.29,7.22,1.92l9.54-73.35A43.36,43.36,0,0,0,48.26,174.82Z"/><path class="cls-4" d="M145.24,195.08c-.14,0-6-.93-13.85-2.47-3.58,2.51-7.54,4.18-12.15,3.92-7.21-.41-14.35-2.57-21.2-4.71-8.8-2.75-17.52-5.91-26.1-9.42,1.08.5,2.16,1,3.25,1.54L58.46,252.13q-5.49-1-10.34-2.15l9.53-73.26q2.33.69,4.66,1.58-10.56-4.74-20.72-10.21a5,5,0,0,1-1.12-.81c-.28-.24-.55-.49-.81-.76-2.23.47-4.47.9-6.73,1.22-7.11,1-15.54-1.39-21.47-5.34a17.36,17.36,0,0,1-1.4-1L2,160.66l-2-.17v71.3c.54,3.72,1.15,6.48,1.86,7.84,3,5.75,17,13.52,40.75,19.37h71c20-28.81,35.13-56.28,35.29-56.57l3.43-6.26ZM10.74,235c-1.82-4.5-3.46-35-4.11-63.92l17.23,1.52L20.4,241.05C14.71,238.46,11.52,236.24,10.74,235Zm12.6,7.3,3.51-69.44,11.53,1L35,246.48C30.47,245.08,26.59,243.67,23.34,242.33Zm14.63,5,3.4-73.17,6.89.63a43.36,43.36,0,0,1,6.47,1.11l-9.54,73.35C42.64,248.65,40.22,248,38,247.36Zm23.45,5.3L78,185.28l2,1c3.74,1.83,7.58,3.7,11.44,5.41L68.43,253.78C66,253.43,63.68,253.05,61.42,252.66Zm10,1.55,22.66-61.36.79.34a123.82,123.82,0,0,0,14.7,4.74L90.69,256.24C83.83,255.71,77.42,255,71.47,254.21ZM102.78,257c-3.09-.13-6.08-.31-9-.51l18.75-57.78c8.89,2.24,18,4,24.08,5.09C130.74,214,118,235.41,102.78,257Z"/><path class="cls-4" d="M76.47,173.48c-3.31-1.55-6.65-3-10-4.3Q71.42,171.41,76.47,173.48Z"/><path class="cls-4" d="M125.56,148.57c0-.16-.11-.1-.21.06C126.42,148.57,125.5,148.29,125.56,148.57Z"/><path class="cls-4" d="M52.83,105.93a2.61,2.61,0,0,0-.28-.17S52.63,105.87,52.83,105.93Z"/><path class="cls-4" d="M32.93,167.74c2.26-.32,4.5-.75,6.73-1.22.26.27.53.52.81.76a5,5,0,0,0,1.12.81q10.14,5.47,20.72,10.21c3.18,1.42,6.4,2.78,9.63,4.1,8.58,3.51,17.3,6.67,26.1,9.42,6.85,2.14,14,4.3,21.2,4.71,4.61.26,8.57-1.41,12.15-3.92a46,46,0,0,0,4.58-3.75c5-4.62,11.69-13,7.82-20.18-2.49-4.63-8-8.8-12.77-11.68a7.92,7.92,0,0,0,1.37-1.21c3.63-4.22,1.76-12.14-.61-16.45a19.52,19.52,0,0,0-8.82-8.55,13.37,13.37,0,0,0,1.33-3.78c1.3-6.75-2.8-13.37-8.52-16.67a36,36,0,0,0-14.18-4.09c4.19-6.62.79-16.48-3.2-22.82a4.5,4.5,0,0,0-5-2.15,4.57,4.57,0,0,0-2,.7c-.09,0,1.53,7.46,1.53,7.46s-5.1-.1-4.88-1.07a3,3,0,0,0-.49-1.43c-4.15,4.8-9.86,5.87-15.93,6.16.82,1.06.6,2-.59,2.8a3,3,0,0,1-3.91-.85,7.38,7.38,0,0,1-.91-1.82c-1.28,0-2.56,0-3.83.1A13.73,13.73,0,0,0,63,95.17l-.64,2.93s-6.07-.31-7.14-3.9c-4.45,1.13-8.33,3.77-10.15,8.18a13,13,0,0,0-1,6.13,48,48,0,0,0-11.38,2.23,5.33,5.33,0,0,0-.86.32,5.4,5.4,0,0,0-.64.3c-7.93,3.82-16.76,10-15.74,19.93a14.93,14.93,0,0,0,2.81,7.16c-.79.36-1.57.74-2.34,1.15a7.3,7.3,0,0,0-.67.36C10.89,142.71,6,146.43,5.47,152c-.35,3.88,1.73,7,4.59,9.34a17.36,17.36,0,0,0,1.4,1C17.39,166.35,25.82,168.77,32.93,167.74ZM134.6,173c.21.45.28.43.3.35a.28.28,0,0,0,0,.08c.09,1-1,2.5-1.53,3.29a28.8,28.8,0,0,1-7.62,7.63c-3.76,2.61-5.25,2.57-10.07,1.71a134.88,134.88,0,0,1-18-4.8Q87,177.77,76.47,173.48q-5.06-2.05-10-4.3-6.44-2.9-12.73-6.05c3.48-.86,7-1.68,10.49-2.3a29.62,29.62,0,0,1,3-.33l1.1-.06c4.17-.16,8.87.22,12.89.24,10,0,20.08,0,30.11-.47a42.9,42.9,0,0,1,10.48,3.19C125.6,165.16,132.64,168.92,134.6,173Zm-9-24.43c-.06-.28.86,0-.21.06C125.45,148.47,125.53,148.41,125.56,148.57ZM55,105.09a6,6,0,0,1,3.19-1.34c3.86-.83,8.16-.16,12.1-.32,8.71-.37,16.76-2.51,22.79-8a10.79,10.79,0,0,1,.47,3.41c-.15,3.35-3.24,3.71-6.18,4.53a96.52,96.52,0,0,1-29.11,3.22,37,37,0,0,1-3.81-.39A3.09,3.09,0,0,1,55,105.09Zm-2.2.84c-.2-.06-.29-.12-.28-.17A2.61,2.61,0,0,1,52.83,105.93ZM35,120.57c4.13-1.64,9.18-1.74,13.54-2.24q11.47-1.31,23-2A197.81,197.81,0,0,1,97.17,116c4.86.34,12.15.66,15.7,4.64,3.78,4.22.57,6.77-3.44,7.41a125.17,125.17,0,0,0-16.77.11l-4.89,0c-8.51,0-17,0-25.54-.13-7.63-.08-15.08-.26-22.43,2.2-3.46,1.16-9.88,5.45-12.41,3.41C21.11,128.55,31,122.45,35,120.57ZM20.69,148.38c7.39-4.19,17.65-4.79,25.89-5.86,9.13-1.19,18.3-2,27.47-2.82,7.73-.72,15.45-1.36,23.21-1.56l8.07,0a44.48,44.48,0,0,0,4.46-.19c6.23.32,12.18,1.92,14,8a12.54,12.54,0,0,1,.35,2.89l-.52.15a73,73,0,0,1-8.74.94c-1.13.08-2.27.12-3.4.18-13.2-2.08-27.56-.64-40.15.06a226.4,226.4,0,0,0-24.54,2.21c-3.28.54-6.86,1.45-8.7,4.24-1.27.27-2.54.53-3.81.76-3.76.67-5,.78-8,.14-3.22-.69-7-1.66-9.68-3.7-.7-.54-1.16-1.56-1.23-1C15.58,151.12,19.43,149.16,20.69,148.38Z"/><path class="cls-4" d="M70.05,86.47c.42-2,3-4.46,3-4.46s1.19-.76-1-.21-5.19,5-5.83,7.94a6.78,6.78,0,0,0,0,3.49,7.38,7.38,0,0,0,.91,1.82,3,3,0,0,0,3.91.85c1.19-.76,1.41-1.74.59-2.8h0C70.83,92,69.62,88.42,70.05,86.47Z"/><path class="cls-4" d="M62.38,98.1,63,95.17a13.73,13.73,0,0,1-.62-1.84c-.74-2.89-1.25-8.48,4.59-11.62,8.13-4.37,10.08-3.94,13.77-2.11,2.82,1.4,5.69,5.18,6.81,7.34a3,3,0,0,1,.49,1.43c-.22,1,4.88,1.07,4.88,1.07S91.32,82,91.41,82h0c.1,0-4.27-8.14-12.29-8.88,1.71-7.81.7-17.25,1.13-19.2s-5.22-4.21-7-5.62-9.34-4.09-7.05-.52,4.24,4,5.77,6.38,3,4.76,2.41,7.7-.74,8,.57,11.38c-7-.52-10.62,1.77-14.83,7s-6,10.4-4.92,14h0C56.31,97.79,62.38,98.1,62.38,98.1Z"/></g></g></svg>